<svg width="343" height="29" viewBox="0 0 343 29" fill="none" xmlns="http://www.w3.org/2000/svg">
<path d="M117.443 3.99132L119.369 8.05802C119.685 8.72375 120.295 9.18515 121.001 9.29202L125.31 9.94423C127.086 10.213 127.796 12.4867 126.51 13.7919L123.391 16.9569C122.881 17.4752 122.648 18.222 122.768 18.9538L123.504 23.4234C123.808 25.2663 121.95 26.6713 120.362 25.8015L116.508 23.6924C115.877 23.3467 115.123 23.3467 114.491 23.6924L110.637 25.8029C109.049 26.6727 107.191 25.2661 107.495 23.4248L108.231 18.9552C108.352 18.2229 108.119 17.4756 107.608 16.9569L104.49 13.7915C103.204 12.4863 103.914 10.2127 105.69 9.94387L109.999 9.29166C110.705 9.18478 111.315 8.72334 111.63 8.05766L113.556 3.99138C114.352 2.31411 116.647 2.31405 117.443 3.99132Z" fill="#FFAE43"/>
<path d="M145.443 3.99132L147.369 8.05802C147.685 8.72375 148.295 9.18515 149.001 9.29202L153.31 9.94423C155.086 10.213 155.796 12.4867 154.51 13.7919L151.391 16.9569C150.881 17.4752 150.648 18.222 150.768 18.9538L151.504 23.4234C151.808 25.2663 149.95 26.6713 148.362 25.8015L144.508 23.6924C143.877 23.3467 143.123 23.3467 142.491 23.6924L138.637 25.8029C137.049 26.6727 135.191 25.2661 135.495 23.4248L136.231 18.9552C136.352 18.2229 136.119 17.4756 135.608 16.9569L132.49 13.7915C131.204 12.4863 131.914 10.2127 133.69 9.94387L137.999 9.29166C138.705 9.18478 139.315 8.72334 139.63 8.05766L141.556 3.99138C142.352 2.31411 144.647 2.31405 145.443 3.99132Z" fill="#FFAE43"/>
<path d="M173.443 3.99132L175.369 8.05802C175.685 8.72375 176.295 9.18515 177.001 9.29202L181.31 9.94423C183.086 10.213 183.796 12.4867 182.51 13.7919L179.391 16.9569C178.881 17.4752 178.648 18.222 178.768 18.9538L179.504 23.4234C179.808 25.2663 177.95 26.6713 176.362 25.8015L172.508 23.6924C171.877 23.3467 171.123 23.3467 170.491 23.6924L166.637 25.8029C165.049 26.6727 163.191 25.2661 163.495 23.4248L164.231 18.9552C164.352 18.2229 164.119 17.4756 163.608 16.9569L160.49 13.7915C159.204 12.4863 159.914 10.2127 161.69 9.94387L165.999 9.29166C166.705 9.18478 167.315 8.72334 167.63 8.05766L169.556 3.99138C170.352 2.31411 172.647 2.31405 173.443 3.99132Z" fill="#FFAE43"/>
<path d="M201.443 3.99132L203.369 8.05802C203.685 8.72375 204.295 9.18515 205.001 9.29202L209.31 9.94423C211.086 10.213 211.796 12.4867 210.51 13.7919L207.391 16.9569C206.881 17.4752 206.648 18.222 206.768 18.9538L207.504 23.4234C207.808 25.2663 205.95 26.6713 204.362 25.8015L200.508 23.6924C199.877 23.3467 199.123 23.3467 198.491 23.6924L194.637 25.8029C193.049 26.6727 191.191 25.2661 191.495 23.4248L192.231 18.9552C192.352 18.2229 192.119 17.4756 191.608 16.9569L188.49 13.7915C187.204 12.4863 187.914 10.2127 189.69 9.94387L193.999 9.29166C194.705 9.18478 195.315 8.72334 195.63 8.05766L197.556 3.99138C198.352 2.31411 200.647 2.31405 201.443 3.99132Z" fill="#FFAE43"/>
<path d="M229.443 3.99132L231.369 8.05802C231.685 8.72375 232.295 9.18515 233.001 9.29202L237.31 9.94423C239.086 10.213 239.796 12.4867 238.51 13.7919L235.391 16.9569C234.881 17.4752 234.648 18.222 234.768 18.9538L235.504 23.4234C235.808 25.2663 233.95 26.6713 232.362 25.8015L228.508 23.6924C227.877 23.3467 227.123 23.3467 226.491 23.6924L222.637 25.8029C221.049 26.6727 219.191 25.2661 219.495 23.4248L220.231 18.9552C220.352 18.2229 220.119 17.4756 219.608 16.9569L216.49 13.7915C215.204 12.4863 215.914 10.2127 217.69 9.94387L221.999 9.29166C222.705 9.18478 223.315 8.72334 223.63 8.05766L225.556 3.99138C226.352 2.31411 228.647 2.31405 229.443 3.99132Z" fill="#DAE0E6"/>
</svg>
